<svg xmlns="http://www.w3.org/2000/svg" width="1440" height="560" preserveAspectRatio="none"><g mask="url('#SvgjsMask1090')" fill="none"><path fill="rgba(22, 22, 26, 1)" d="M0 0h1440v560H0z"/><path d="M-495.647 114c71.997 51.2 215.997 233.6 360 256 143.997 22.4 215.997-141.2 360-144 143.997-2.8 215.997 158.2 360 130 143.997-28.2 215.997-294.8 360-271 143.997 23.8 260.867 381.2 360 390 99.127 8.8 108.517-276.8 135.647-346" stroke="rgba(127, 90, 240, 1)" stroke-width="2"/><path d="M-8.468 305c71.998-41.6 215.998-241.6 360-208 143.998 33.6 215.998 372.8 360 376 143.998 3.2 215.998-360 360-360 143.998 0 215.998 352.4 360 360 143.998 7.6 358.308-293.8 360-322 1.698-28.2-281.222 144.8-351.532 181" stroke="rgba(127, 90, 240, 1)" stroke-width="2"/><path d="M-620.034 215c72.004 49.4 216.004 237.8 360 247 144.004 9.2 216.004-182 360-201 144.004-19 216.004 128.6 360 106 144.004-22.6 216.004-210.6 360-219 144.004-8.4 235.994 193.2 360 177C1303.97 308.8 1387.99 118.6 1440 67" stroke="rgba(127, 90, 240, 1)" stroke-width="2"/><path d="M-442.623 424c72.003-33.2 216.003-139 360-166 144.003-27 216.003 29 360 31 144.003 2 216.003-63.8 360-21 144.003 42.8 216.003 254.8 360 235 144.003-19.8 271.473-309 360-334 88.523-25 66.103 167.2 82.623 209" stroke="rgba(127, 90, 240, 1)" stroke-width="2"/></g><defs><mask id="SvgjsMask1090"><path fill="#fff" d="M0 0h1440v560H0z"/></mask></defs></svg>