<svg xmlns="http://www.w3.org/2000/svg" version="1.1" xmlns:xlink="http://www.w3.org/1999/xlink" xmlns:svgjs="http://svgjs.com/svgjs" width="1440" height="560" preserveAspectRatio="none" viewBox="0 0 1440 560"><g mask="url('#SvgjsMask1090')" fill="none"><rect width="1440" height="560" x="0" y="0" fill="rgba(22, 22, 26, 1)"></rect><path d="M -495.6472377483735,114 C -423.65,165.2 -279.65,347.6 -135.64723774837356,370 C 8.35,392.4 80.35,228.8 224.35276225162644,226 C 368.35,223.2 440.35,384.2 584.3527622516265,356 C 728.35,327.8 800.35,61.2 944.3527622516265,85 C 1088.35,108.8 1205.22,466.2 1304.3527622516265,475 C 1403.48,483.8 1412.87,198.2 1440,129" stroke="rgba(127, 90, 240, 1)" stroke-width="2"></path><path d="M -8.468364897284687,305 C 63.53,263.4 207.53,63.4 351.5316351027153,97 C 495.53,130.6 567.53,469.8 711.5316351027153,473 C 855.53,476.2 927.53,113 1071.5316351027154,113 C 1215.53,113 1287.53,465.4 1431.5316351027154,473 C 1575.53,480.6 1789.84,179.2 1791.5316351027154,151 C 1793.23,122.8 1510.31,295.8 1440,332" stroke="rgba(127, 90, 240, 1)" stroke-width="2"></path><path d="M -620.0338199717207,215 C -548.03,264.4 -404.03,452.8 -260.0338199717207,462 C -116.03,471.2 -44.03,280 99.96618002827933,261 C 243.97,242 315.97,389.6 459.9661800282793,367 C 603.97,344.4 675.97,156.4 819.9661800282793,148 C 963.97,139.6 1055.96,341.2 1179.9661800282793,325 C 1303.97,308.8 1387.99,118.6 1440,67" stroke="rgba(127, 90, 240, 1)" stroke-width="2"></path><path d="M -442.62335395023604,424 C -370.62,390.8 -226.62,285 -82.62335395023604,258 C 61.38,231 133.38,287 277.37664604976396,289 C 421.38,291 493.38,225.2 637.376646049764,268 C 781.38,310.8 853.38,522.8 997.376646049764,503 C 1141.38,483.2 1268.85,194 1357.376646049764,169 C 1445.9,144 1423.48,336.2 1440,378" stroke="rgba(127, 90, 240, 1)" stroke-width="2"></path></g><defs><mask id="SvgjsMask1090"><rect width="1440" height="560" fill="#ffffff"></rect></mask></defs></svg>